<svg width="1024" height="1024" viewBox="0 0 1024 1024" fill="none" xmlns="http://www.w3.org/2000/svg">
<g clip-path="url(#clip0_42_40)">
<rect width="1024" height="1024" fill="#1D3A5D"/>
<path d="M1023 -30H0V644H1023V-30Z" fill="url(#paint0_linear_42_40)" fill-opacity="0.6"/>
<path d="M87 514.402H307.718L331.199 488.598L349.983 376L380.508 627L408.685 514.402L432.166 462.794L455.646 514.402H937" stroke="#E53E6D" stroke-width="13" stroke-linecap="round" stroke-linejoin="round"/>
<path d="M512.5 155C709.39 155 869 314.61 869 511.5C869 708.39 709.39 868 512.5 868C315.61 868 156 708.39 156 511.5C156 314.61 315.61 155 512.5 155ZM512.5 177.281C327.916 177.281 178.281 326.916 178.281 511.5C178.281 696.084 327.916 845.719 512.5 845.719C697.084 845.719 846.719 696.084 846.719 511.5C846.719 326.916 697.084 177.281 512.5 177.281Z" fill="white"/>
<circle cx="346" cy="209" r="11" fill="#E53E6D"/>
<path d="M517 448C508.304 440.683 467 421.171 467 389.463C467 362.634 481.13 348 495.261 348C505.043 348 512.652 355.317 517 367.512C521.348 357.756 528.957 352.878 540.913 352.878C555.043 352.878 567 367.512 567 394.341C567 423.61 525.696 440.683 517 448Z" fill="white"/>
<path d="M483.432 543.455V590H477.795V549.364H477.523L466.159 556.909V551.182L477.795 543.455H483.432ZM496.818 590V585.909L512.182 569.091C513.985 567.121 515.47 565.409 516.636 563.955C517.803 562.485 518.667 561.106 519.227 559.818C519.803 558.515 520.091 557.152 520.091 555.727C520.091 554.091 519.697 552.674 518.909 551.477C518.136 550.28 517.076 549.356 515.727 548.705C514.379 548.053 512.864 547.727 511.182 547.727C509.394 547.727 507.833 548.098 506.5 548.841C505.182 549.568 504.159 550.591 503.432 551.909C502.72 553.227 502.364 554.773 502.364 556.545H497C497 553.818 497.629 551.424 498.886 549.364C500.144 547.303 501.856 545.697 504.023 544.545C506.205 543.394 508.652 542.818 511.364 542.818C514.091 542.818 516.508 543.394 518.614 544.545C520.72 545.697 522.371 547.25 523.568 549.205C524.765 551.159 525.364 553.333 525.364 555.727C525.364 557.439 525.053 559.114 524.432 560.75C523.826 562.371 522.765 564.182 521.25 566.182C519.75 568.167 517.667 570.591 515 573.455L504.545 584.636V585H526.182V590H496.818ZM550.75 590.636C547.326 590.636 544.409 589.705 542 587.841C539.591 585.962 537.75 583.242 536.477 579.682C535.205 576.106 534.568 571.788 534.568 566.727C534.568 561.697 535.205 557.402 536.477 553.841C537.765 550.265 539.614 547.538 542.023 545.659C544.447 543.765 547.356 542.818 550.75 542.818C554.144 542.818 557.045 543.765 559.455 545.659C561.879 547.538 563.727 550.265 565 553.841C566.288 557.402 566.932 561.697 566.932 566.727C566.932 571.788 566.295 576.106 565.023 579.682C563.75 583.242 561.909 585.962 559.5 587.841C557.091 589.705 554.174 590.636 550.75 590.636ZM550.75 585.636C554.144 585.636 556.78 584 558.659 580.727C560.538 577.455 561.477 572.788 561.477 566.727C561.477 562.697 561.045 559.265 560.182 556.432C559.333 553.598 558.106 551.439 556.5 549.955C554.909 548.47 552.992 547.727 550.75 547.727C547.386 547.727 544.758 549.386 542.864 552.705C540.97 556.008 540.023 560.682 540.023 566.727C540.023 570.758 540.447 574.182 541.295 577C542.144 579.818 543.364 581.962 544.955 583.432C546.561 584.902 548.492 585.636 550.75 585.636Z" fill="white"/>
<path d="M502.006 661.477C499.665 661.477 497.597 661.062 495.802 660.233C494.018 659.392 492.626 658.239 491.626 656.773C490.626 655.295 490.131 653.614 490.143 651.727C490.131 650.25 490.421 648.886 491.012 647.636C491.603 646.375 492.41 645.324 493.433 644.483C494.467 643.631 495.62 643.091 496.893 642.864V642.659C495.222 642.227 493.893 641.29 492.904 639.847C491.915 638.392 491.427 636.739 491.438 634.886C491.427 633.114 491.876 631.528 492.785 630.131C493.694 628.733 494.944 627.631 496.535 626.824C498.137 626.017 499.961 625.614 502.006 625.614C504.029 625.614 505.836 626.017 507.427 626.824C509.018 627.631 510.268 628.733 511.177 630.131C512.097 631.528 512.563 633.114 512.575 634.886C512.563 636.739 512.058 638.392 511.058 639.847C510.069 641.29 508.756 642.227 507.12 642.659V642.864C508.381 643.091 509.518 643.631 510.529 644.483C511.54 645.324 512.347 646.375 512.95 647.636C513.552 648.886 513.859 650.25 513.87 651.727C513.859 653.614 513.347 655.295 512.336 656.773C511.336 658.239 509.944 659.392 508.16 660.233C506.387 661.062 504.336 661.477 502.006 661.477ZM502.006 657.727C503.586 657.727 504.95 657.472 506.097 656.96C507.245 656.449 508.131 655.727 508.756 654.795C509.381 653.864 509.7 652.773 509.711 651.523C509.7 650.205 509.359 649.04 508.688 648.028C508.018 647.017 507.103 646.222 505.944 645.642C504.796 645.062 503.484 644.773 502.006 644.773C500.518 644.773 499.188 645.062 498.018 645.642C496.859 646.222 495.944 647.017 495.273 648.028C494.614 649.04 494.29 650.205 494.302 651.523C494.29 652.773 494.592 653.864 495.205 654.795C495.83 655.727 496.722 656.449 497.881 656.96C499.04 657.472 500.415 657.727 502.006 657.727ZM502.006 641.159C503.256 641.159 504.364 640.909 505.33 640.409C506.308 639.909 507.075 639.21 507.631 638.312C508.188 637.415 508.472 636.364 508.484 635.159C508.472 633.977 508.194 632.949 507.648 632.074C507.103 631.187 506.347 630.506 505.381 630.028C504.415 629.54 503.29 629.295 502.006 629.295C500.7 629.295 499.558 629.54 498.58 630.028C497.603 630.506 496.847 631.187 496.313 632.074C495.779 632.949 495.518 633.977 495.529 635.159C495.518 636.364 495.785 637.415 496.33 638.312C496.887 639.21 497.654 639.909 498.631 640.409C499.609 640.909 500.734 641.159 502.006 641.159ZM531.789 661.477C529.221 661.477 527.033 660.778 525.227 659.381C523.42 657.972 522.039 655.932 521.085 653.261C520.13 650.58 519.653 647.341 519.653 643.545C519.653 639.773 520.13 636.551 521.085 633.881C522.05 631.199 523.437 629.153 525.244 627.744C527.062 626.324 529.244 625.614 531.789 625.614C534.335 625.614 536.511 626.324 538.317 627.744C540.136 629.153 541.522 631.199 542.477 633.881C543.442 636.551 543.925 639.773 543.925 643.545C543.925 647.341 543.448 650.58 542.494 653.261C541.539 655.932 540.158 657.972 538.352 659.381C536.545 660.778 534.357 661.477 531.789 661.477ZM531.789 657.727C534.335 657.727 536.312 656.5 537.721 654.045C539.13 651.591 539.835 648.091 539.835 643.545C539.835 640.523 539.511 637.949 538.863 635.824C538.227 633.699 537.306 632.08 536.102 630.966C534.908 629.852 533.471 629.295 531.789 629.295C529.266 629.295 527.295 630.54 525.874 633.028C524.454 635.506 523.744 639.011 523.744 643.545C523.744 646.568 524.062 649.136 524.698 651.25C525.335 653.364 526.249 654.972 527.442 656.074C528.647 657.176 530.096 657.727 531.789 657.727Z" fill="#BAC4D3"/>
<path opacity="0.9" d="M517 748C513 742.327 497 733.818 497 721.055C497 709.709 505 704.037 513 711.127C515 713.255 516.333 715.382 517 718.218C517.667 715.382 519 713.255 521 711.127C529 704.037 537 709.709 537 721.055C537 733.818 521 742.327 517 748Z" fill="#E53E6D"/>
<line x1="450.003" y1="610.5" x2="598.003" y2="611.5" stroke="white"/>
<path d="M1024 1024H0V472H158.166C156.736 484.97 156 498.149 156 511.5C156 708.39 315.61 868 512.5 868C709.39 868 869 708.39 869 511.5C869 498.149 868.264 484.97 866.834 472H1024V1024Z" fill="#1D3A5D" fill-opacity="0.7"/>
</g>
<defs>
<linearGradient id="paint0_linear_42_40" x1="0" y1="-30" x2="0" y2="644" gradientUnits="userSpaceOnUse">
<stop stop-color="white" stop-opacity="0.16"/>
<stop offset="0.5" stop-color="white" stop-opacity="0"/>
</linearGradient>
<clipPath id="clip0_42_40">
<rect width="1024" height="1024" fill="white"/>
</clipPath>
</defs>
</svg>
